# xmcd
#
# Track frame offsets: 
#        150
#        9721
#        34541
#        55286
#        75739
#        92208
#        111113
#        130771
#        148207
#        166747
#        185029
#        203832
#        219732
#        236901
#
# Disc length: 3616 seconds
#
# Revision: 1
# Processed by: cddbd v1.5.2PL0 Copyright (c) Steve Scherf et al.
# Submitted via: ExactAudioCopy v0.99pb5
#
DISCID=c90e1e0e
DTITLE=Aventura - Love and Hate
DYEAR=2004
DGENRE=Pop
TTITLE0=Intro
TTITLE1=La Pelicula
TTITLE2=Hermanita
TTITLE3=Mi Nina Cambio
TTITLE4=Pueblo Por Pueblo
TTITLE5=I'm Sorry
TTITLE6=Deja Vu
TTITLE7=Conciencia
TTITLE8=Llorar
TTITLE9=Papi Dijo
TTITLE10=Me Voy
TTITLE11=Te Invito
TTITLE12=Aventura
TTITLE13=La Guerra
EXTD=
EXTT0=
EXTT1=
EXTT2=
EXTT3=
EXTT4=
EXTT5=
EXTT6=
EXTT7=
EXTT8=
EXTT9=
EXTT10=
EXTT11=
EXTT12=
EXTT13=
PLAYORDER=
